<svg width="191" height="219" viewBox="0 0 191 219" fill="none" xmlns="http://www.w3.org/2000/svg">
<path d="M132.672 189.188H74.2472C64.2268 189.188 56.0288 181.022 56.0288 171.042V119.628C56.0288 109.648 64.2268 101.482 74.2472 101.482H132.672C142.693 101.482 150.891 109.648 150.891 119.628V171.042C150.891 181.022 142.692 189.188 132.672 189.188Z" fill="white"/>
<path d="M132.672 101.482C142.692 101.482 150.89 109.647 150.89 119.627V171.041C150.89 181.022 142.692 189.187 132.672 189.187H74.2475C64.2271 189.187 56.0291 181.022 56.0291 171.041V119.627C56.0291 109.647 64.2271 101.482 74.2475 101.482H132.672ZM132.672 98.6135H74.2475C71.4098 98.6135 68.6511 99.1724 66.0479 100.274C63.5385 101.336 61.2833 102.853 59.3448 104.784C57.4064 106.715 55.8827 108.962 54.8164 111.46C53.7106 114.053 53.1494 116.801 53.1494 119.627V171.041C53.1494 173.868 53.7106 176.615 54.8164 179.208C55.8827 181.708 57.4056 183.954 59.3448 185.885C61.2833 187.815 63.5393 189.333 66.0479 190.395C68.6511 191.496 71.4098 192.055 74.2475 192.055H132.673C135.51 192.055 138.269 191.496 140.872 190.395C143.382 189.333 145.637 187.816 147.575 185.885C149.514 183.954 151.037 181.707 152.104 179.208C153.21 176.615 153.771 173.868 153.771 171.041V119.627C153.771 116.801 153.21 114.053 152.104 111.46C151.037 108.961 149.515 106.715 147.575 104.784C145.637 102.854 143.381 101.336 140.872 100.274C138.269 99.1724 135.51 98.6135 132.672 98.6135Z" fill="#00227B"/>
<path d="M149.584 157.396C140.487 158.458 131.421 158.72 131.421 158.72C131.421 158.72 126.803 135.787 125.523 117.805C124.58 104.481 125.467 93.8777 131.421 97.3359C134.16 98.9273 137.314 101.924 140.603 105.726C152.941 119.989 167.115 145.601 167.893 150.915C168.395 154.333 158.977 156.293 149.584 157.396Z" fill="white"/>
<path d="M130.203 160.247L129.954 159.014C129.926 158.873 127.103 144.782 125.275 130.192C124.197 121.59 123.671 114.488 123.709 109.083C123.76 101.701 124.837 97.5146 127.095 95.9076C128.087 95.202 129.773 94.6546 132.176 96.0502C140.096 100.652 150.147 115.313 155.434 123.642C158.961 129.198 162.337 135.038 164.941 140.086C166.775 143.643 169.034 148.371 169.375 150.699C169.475 151.375 169.408 152.401 168.528 153.445C167.255 154.954 164.611 156.136 160.207 157.162C156.978 157.914 152.829 158.561 147.874 159.086C139.486 159.973 131.544 160.209 131.465 160.211L130.203 160.247ZM129.359 98.1669C129.07 98.1669 128.918 98.2751 128.835 98.3332C127.859 99.0282 124.931 103.35 128.244 129.808C129.744 141.79 131.922 153.439 132.646 157.184C135.2 157.081 141.261 156.787 147.575 156.119C162.233 154.566 165.507 152.39 166.236 151.527C166.437 151.289 166.421 151.178 166.413 151.13C165.988 148.234 160.458 137.136 152.904 125.235C144.156 111.452 136.052 101.753 130.668 98.625C130.057 98.2701 129.642 98.1669 129.359 98.1669Z" fill="#00227B"/>
<path d="M85.1339 96.4903L83.2926 110.362L82.2452 118.249L80.0114 135.088C80.0114 135.088 75.9288 137.853 69.1378 140.045C66.6004 140.865 63.6779 141.598 60.4527 142.079C55.1804 142.869 49.0846 142.97 42.4803 141.625C25.4886 138.158 15.2913 125.587 10.8764 119.267C2.34349 107.067 1.03036 103.769 3.40238 98.6332C5.21328 94.6973 8.31592 93.9786 8.31592 93.9786C8.31592 93.9786 8.16288 90.8334 10.6624 89.7149C18.1537 86.364 27.8039 95.3127 27.8039 95.3127C27.8039 95.3127 28.1634 85.6896 33.3345 87.9112C36.897 89.4428 37.705 99.9198 37.705 99.9198C37.705 99.9198 42.4869 106.04 50.0834 106.852C54.0532 107.276 59.5468 106.129 65.0026 104.463C65.0659 104.444 65.1301 104.426 65.1934 104.403C68.1011 103.509 70.9898 102.472 73.635 101.447C74.8214 100.989 75.9585 100.53 77.0248 100.091C81.7918 98.1227 85.1339 96.4903 85.1339 96.4903Z" fill="white"/>
<path opacity="0.35" d="M10.8739 119.267C15.2929 125.586 25.4886 138.159 42.4786 141.625C53.121 143.793 62.447 142.2 69.1385 140.042C75.9296 137.853 80.0113 135.086 80.0113 135.086L80.3108 121.798C80.3108 121.798 75.6836 117.357 71.374 119.168C66.1955 121.343 67.855 128.739 60.4592 130.796C39.8993 136.514 23.1972 126.067 17.8229 121.48C10.3671 115.118 8.42205 111.11 7.37303 109.457C5.20176 106.035 3.52497 103.347 2.57962 100.939C1.61617 105.012 3.67307 108.968 10.8739 119.267Z" fill="#00227B"/>
<path d="M52.7317 144.148C49.1839 144.148 45.651 143.793 42.179 143.084C34.5413 141.526 27.4153 138.019 21.0002 132.658C16.8716 129.208 13.0515 124.988 9.64695 120.119C5.49201 114.175 2.85094 110.093 1.64642 106.813C0.492085 103.67 0.606449 101.12 2.0397 98.0095C3.45074 94.9463 5.58416 93.5376 6.87342 92.9337C7.08405 91.3586 7.90435 89.3157 10.0485 88.3569C16.1402 85.6313 23.1699 89.8492 26.6493 92.4453C26.6831 92.2691 26.7209 92.0888 26.7612 91.9061C27.338 89.3296 28.3335 87.5809 29.7199 86.7098C30.5714 86.1746 31.9923 85.7116 33.9299 86.5451C35.8955 87.3908 37.3296 89.8811 38.3153 94.158C38.8196 96.3493 39.0623 98.4061 39.1537 99.3174C40.2117 100.511 44.3469 104.739 50.2445 105.369C61.0103 106.518 84.2402 95.2651 84.4738 95.1512C84.9691 94.9094 85.5582 94.9586 86.0058 95.2798C86.4534 95.6003 86.6879 96.1411 86.6163 96.6852L81.4971 135.281C81.4411 135.702 81.2083 136.079 80.8553 136.318C80.6842 136.434 76.5786 139.19 69.7522 141.411C65.7535 142.713 61.6397 143.56 57.5259 143.931C55.9273 144.076 54.3278 144.148 52.7317 144.148ZM8.66211 95.4265C8.46876 95.479 6.18395 96.1608 4.75975 99.2518C2.84189 103.415 3.31333 105.841 12.1029 118.414C20.3667 130.235 30.9738 137.755 42.7787 140.163C53.5347 142.356 62.8772 140.511 68.8208 138.577C73.8594 136.937 77.3339 134.981 78.6191 134.2L83.2891 98.9953C80.8496 100.105 76.8592 101.848 72.3809 103.52C62.4123 107.24 54.8561 108.859 49.9253 108.333C41.7906 107.465 36.7356 101.106 36.5241 100.836C36.3439 100.605 36.2353 100.326 36.2131 100.034C36.2115 100.01 36.0082 97.4654 35.3895 94.7923C34.3471 90.286 33.0998 89.4345 32.7427 89.2813C31.8492 88.8969 31.4633 89.1387 31.3177 89.2297C30.0597 90.018 29.3784 93.2943 29.2961 95.3683C29.2731 95.9502 28.9111 96.4664 28.3705 96.6885C27.8292 96.9106 27.2088 96.7992 26.7801 96.4017C26.6913 96.3198 17.7668 88.1709 11.2744 91.0759C9.7786 91.7454 9.80575 93.7646 9.80986 93.9097C9.85429 94.6456 9.38532 95.2741 8.66211 95.4265Z" fill="#00227B"/>
<path d="M29.035 95.311C29.0695 95.7298 29.007 96.1108 28.9231 96.4411C28.8811 96.6115 28.8293 96.759 28.7766 96.9106C28.7232 97.0524 28.6648 97.1966 28.6072 97.3253C28.371 97.8547 28.116 98.2931 27.8733 98.7184C27.6297 99.1412 27.3952 99.5436 27.1772 99.9468L27.0176 100.25C26.9674 100.352 26.9139 100.452 26.8654 100.555L26.7239 100.863L26.5889 101.174L26.4663 101.491L26.3528 101.812C26.3141 101.919 26.2853 102.029 26.2508 102.138C26.2146 102.247 26.1874 102.358 26.1578 102.469C26.0443 102.915 25.9464 103.374 25.8896 103.847C25.8279 104.319 25.7884 104.803 25.7769 105.295C25.7645 105.543 25.7695 105.79 25.767 106.043C25.7629 106.169 25.7736 106.294 25.7744 106.421C25.7769 106.548 25.781 106.675 25.7802 106.803V106.812C25.7802 106.911 25.6995 106.992 25.5991 106.992C25.5292 106.992 25.4691 106.952 25.4395 106.894C25.1993 106.43 24.9821 105.949 24.8142 105.445C24.6373 104.944 24.5106 104.421 24.4177 103.886C24.235 102.816 24.2391 101.683 24.4399 100.577L24.523 100.164C24.5551 100.028 24.5904 99.8927 24.6242 99.7558C24.6604 99.6206 24.7007 99.4879 24.7385 99.3527C24.778 99.2191 24.8249 99.0888 24.8685 98.9568C25.0487 98.4324 25.2717 97.9341 25.5012 97.467C25.73 97.0008 25.9735 96.5607 26.171 96.1788C26.3791 95.792 26.4968 95.4782 26.5659 95.3085L26.7107 94.9537C26.9625 94.3383 27.6676 94.0425 28.2855 94.2932C28.7223 94.4719 28.998 94.8742 29.035 95.311Z" fill="#00227B"/>
<path d="M40.8349 142.648C40.4573 142.648 40.0928 142.44 39.9134 142.08C39.66 141.574 39.8673 140.959 40.3758 140.707C44.525 138.651 47.3602 132.234 48.573 122.15C49.5134 114.336 49.1226 107.068 49.1185 106.996C49.0872 106.431 49.5208 105.948 50.0877 105.916C50.6521 105.884 51.14 106.317 51.1721 106.881C51.1762 106.955 51.5769 114.378 50.6184 122.367C50.0515 127.094 49.1259 131.106 47.8671 134.289C46.238 138.41 44.0256 141.186 41.2924 142.541C41.1451 142.614 40.9888 142.648 40.8349 142.648Z" fill="#00227B"/>
<g opacity="0.35">
<g opacity="0.35">
<g opacity="0.35">
<g opacity="0.35">
<path opacity="0.35" d="M173.569 208.583V208.374C171.924 208.444 173.569 208.583 173.569 208.583Z" fill="#00227B"/>
</g>
</g>
</g>
</g>
<path d="M152.81 183.418H54.0048C54.0048 183.418 54.6071 166.434 60.452 142.079C62.7944 132.31 65.9826 121.356 70.3119 109.836C71.3519 107.071 72.4602 104.272 73.6351 101.446C76.9204 93.5639 80.752 85.4913 85.2204 77.4186H121.596C125.289 84.0932 128.548 90.7646 131.422 97.3351C133.281 101.584 134.98 105.788 136.529 109.917C143.291 127.919 147.262 144.534 149.585 157.395C152.451 173.262 152.81 183.418 152.81 183.418Z" fill="white"/>
<path d="M139.246 122.584C141.156 124.707 142.028 127.179 142.835 129.661C143.24 130.902 143.639 132.146 144.02 133.396C144.21 134.021 144.406 134.644 144.577 135.274C144.752 135.903 144.922 136.534 145.093 137.164L145.593 139.058C145.758 139.69 145.924 140.321 146.079 140.956L146.988 144.766C147.136 145.402 147.298 146.034 147.443 146.671L147.877 148.58L148.322 150.487C148.471 151.122 148.626 151.756 148.766 152.394L149.623 156.215C149.771 156.851 149.897 157.492 150.033 158.13L150.435 160.047L150.635 161.005L150.736 161.484L150.83 161.965L151.206 163.886C151.331 164.527 151.46 165.167 151.596 165.806C151.725 166.446 151.856 167.086 151.993 167.725C152.566 170.276 152.983 172.86 153.157 175.477C153.179 175.804 153.205 176.13 153.22 176.459L153.262 177.443C153.284 178.1 153.302 178.756 153.292 179.418C153.288 180.077 153.273 180.738 153.23 181.401C153.192 182.064 153.137 182.727 153.036 183.395C153.017 183.523 152.896 183.612 152.767 183.593C152.679 183.58 152.61 183.52 152.58 183.443L152.58 183.44C152.107 182.19 151.721 180.935 151.357 179.679C151.178 179.052 151.005 178.422 150.838 177.794L150.597 176.849C150.522 176.533 150.444 176.219 150.365 175.903C150.059 174.642 149.789 173.377 149.546 172.107C149.429 171.471 149.323 170.834 149.226 170.195C149.121 169.556 149.025 168.917 148.926 168.278C148.829 167.638 148.727 166.999 148.623 166.361C148.513 165.724 148.39 165.088 148.266 164.453L147.893 162.548L147.8 162.072L147.701 161.597L147.501 160.647L147.103 158.747C146.968 158.114 146.842 157.479 146.697 156.848L145.846 153.059C145.709 152.426 145.55 151.798 145.399 151.169L144.934 149.283L144.458 147.401C144.381 147.087 144.293 146.775 144.209 146.463L143.953 145.526L142.925 141.781C142.57 140.536 142.206 139.294 141.86 138.047C141.687 137.423 141.514 136.799 141.346 136.174L141.221 135.705L141.089 135.238L140.828 134.303C140.48 133.057 140.15 131.805 139.825 130.551L139.586 129.608C139.507 129.295 139.419 128.983 139.335 128.67C139.168 128.044 139.028 127.41 138.923 126.765C138.818 126.119 138.745 125.464 138.717 124.793C138.702 124.458 138.7 124.119 138.713 123.775C138.726 123.43 138.748 123.082 138.809 122.722L138.811 122.709C138.834 122.572 138.964 122.481 139.1 122.504C139.159 122.514 139.21 122.544 139.246 122.584Z" fill="#00227B"/>
<path d="M53.773 183.41C53.6208 183.073 53.5163 182.738 53.4184 182.401C53.3205 182.063 53.2473 181.73 53.1823 181.394C53.0506 180.722 52.9799 180.054 52.9404 179.388C52.9223 179.054 52.9099 178.721 52.9107 178.389C52.9116 178.057 52.9247 177.727 52.9404 177.397L52.9963 176.406C53.0136 176.076 53.0342 175.746 53.0613 175.416C53.1642 174.099 53.2645 172.779 53.4192 171.468C53.4891 170.811 53.5673 170.155 53.6447 169.499C53.6825 169.171 53.7335 168.845 53.7779 168.517L53.917 167.536L54.2074 165.577C54.3094 164.925 54.4279 164.276 54.539 163.625C54.7661 162.324 54.98 161.022 55.2392 159.728C55.4909 158.433 55.7213 157.134 55.9788 155.841C56.2405 154.548 56.4955 153.254 56.7473 151.96C56.8115 151.636 56.869 151.311 56.939 150.989L57.1463 150.022L57.5602 148.088L57.974 146.155C58.0094 145.993 58.0415 145.832 58.0785 145.671L58.192 145.19L58.4191 144.227L59.3266 140.376C59.3999 140.055 59.4821 139.736 59.5636 139.416C59.6426 139.096 59.7232 138.776 59.7989 138.456C59.9519 137.814 60.1033 137.172 60.249 136.529C60.3979 135.886 60.5435 135.242 60.6974 134.601C60.8455 133.957 61.0314 133.325 61.2173 132.691C61.4074 132.06 61.609 131.431 61.8204 130.805C62.0327 130.18 62.2581 129.558 62.486 128.937L62.8382 128.01C62.8974 127.856 62.9632 127.703 63.0274 127.55C63.0924 127.398 63.1549 127.244 63.2224 127.092C63.4882 126.483 63.7572 125.877 64.0435 125.276C64.3266 124.674 64.6219 124.076 64.9321 123.485C65.2423 122.893 65.564 122.305 65.9211 121.73C65.9894 121.619 66.135 121.585 66.2461 121.654C66.3218 121.701 66.3621 121.783 66.358 121.867V121.87C66.2099 124.574 65.7014 127.148 65.1995 129.72C65.0703 130.362 64.9387 131.002 64.7939 131.64C64.6483 132.277 64.4919 132.91 64.3257 133.54C63.9785 134.797 63.6297 136.054 63.266 137.307C63.0842 137.934 62.9073 138.562 62.732 139.191C62.6432 139.504 62.5601 139.82 62.4753 140.135C62.3922 140.45 62.3067 140.765 62.2359 141.084L61.3383 144.893L61.1137 145.846L61.0018 146.322C60.9648 146.481 60.9327 146.64 60.8981 146.799L60.4884 148.713L60.0786 150.626L59.8738 151.584C59.8055 151.902 59.7479 152.224 59.6845 152.543C58.633 157.656 57.9263 162.83 57.2393 167.994L56.9727 169.929C56.8896 170.575 56.8065 171.221 56.716 171.866L56.1862 175.736C56.0899 176.381 56.0126 177.026 55.9253 177.671C55.8801 177.993 55.8324 178.316 55.7723 178.637C55.7131 178.958 55.6547 179.279 55.5823 179.6C55.4383 180.241 55.2597 180.88 55.0483 181.517C54.943 181.836 54.8171 182.156 54.6879 182.474C54.5554 182.792 54.4115 183.111 54.2337 183.428L54.2321 183.432C54.163 183.555 54.0075 183.599 53.8841 183.53C53.8322 183.5 53.7952 183.458 53.773 183.41Z" fill="#00227B"/>
<path d="M82.4624 161.99C76.8273 164.263 68.106 163.787 62.1607 163.07C58.5949 162.641 56.0912 159.363 56.617 155.824C57.0966 152.594 59.9508 150.245 63.2246 150.398C68.7856 150.658 77.1276 150.779 82.4105 149.612" fill="white"/>
<g opacity="0.35">
<g opacity="0.35">
<g opacity="0.35">
<g opacity="0.35">
<path opacity="0.35" d="M82.4639 161.989C76.8271 164.265 68.1059 163.785 62.1606 163.073C58.5947 162.642 56.0919 159.363 56.6176 155.826C56.7221 155.104 56.95 154.426 57.2734 153.808C58.2122 155.593 59.9901 156.909 62.1606 157.172C68.0952 157.889 76.8016 158.364 82.4392 156.103L82.4639 161.989Z" fill="#00227B"/>
</g>
</g>
</g>
</g>
<path d="M71.2588 165.153C67.9982 165.153 64.7565 164.885 61.9805 164.551C59.8545 164.294 57.9679 163.219 56.6679 161.523C55.3655 159.823 54.8217 157.722 55.136 155.606C55.4223 153.678 56.4112 151.933 57.9202 150.694C59.4308 149.452 61.3396 148.819 63.2945 148.91C71.4867 149.292 78.1601 149.025 82.0855 148.158C82.8737 147.984 84.8319 147.978 85.9879 151.679C87.162 155.44 87.032 161.757 83.0243 163.373C79.7193 164.705 75.4738 165.153 71.2588 165.153ZM62.9209 151.882C60.507 151.882 58.455 153.633 58.0979 156.042C57.9029 157.354 58.2402 158.659 59.0482 159.714C59.8537 160.765 61.0228 161.431 62.3409 161.59C70.8425 162.614 77.7899 162.266 81.9012 160.608C83.1222 160.116 83.4727 158.145 83.5673 157.321C83.8964 154.436 83.0152 151.771 82.4632 151.126C77.1053 152.248 69.0316 152.162 63.1554 151.888C63.0764 151.883 62.9983 151.882 62.9209 151.882Z" fill="#00227B"/>
<path d="M125.566 161.99C131.201 164.263 139.923 163.787 145.868 163.07C149.434 162.641 151.937 159.363 151.412 155.824C150.932 152.594 148.078 150.245 144.804 150.398C139.243 150.658 130.901 150.779 125.618 149.612" fill="white"/>
<g opacity="0.35">
<g opacity="0.35">
<g opacity="0.35">
<g opacity="0.35">
<path opacity="0.35" d="M145.866 163.073C139.921 163.785 131.2 164.265 125.563 161.989L125.587 156.048C131.224 158.309 139.931 157.834 145.866 157.117C148.027 156.859 149.795 155.553 150.738 153.777C151.071 154.401 151.304 155.089 151.414 155.825C151.936 159.363 149.433 162.642 145.866 163.073Z" fill="#00227B"/>
</g>
</g>
</g>
</g>
<path d="M136.77 165.153C132.555 165.153 128.31 164.705 125.004 163.373C120.997 161.757 120.867 155.439 122.041 151.679C123.196 147.978 125.155 147.984 125.943 148.157C129.869 149.025 136.543 149.292 144.734 148.91C146.691 148.819 148.598 149.452 150.109 150.693C151.617 151.933 152.606 153.677 152.893 155.606C153.207 157.722 152.662 159.823 151.361 161.522C150.061 163.219 148.174 164.294 146.048 164.55C143.272 164.885 140.03 165.153 136.77 165.153ZM125.566 151.126C125.014 151.771 124.133 154.436 124.462 157.321C124.556 158.145 124.906 160.116 126.128 160.609C130.24 162.266 137.187 162.615 145.689 161.59C147.006 161.431 148.176 160.765 148.981 159.714C149.789 158.659 150.127 157.355 149.932 156.042C149.563 153.556 147.389 151.771 144.875 151.888C138.997 152.162 130.924 152.247 125.566 151.126Z" fill="#00227B"/>
<path d="M127.744 145.522V165.358C127.744 169.038 124.72 172.051 121.025 172.051H84.3467C80.6566 172.051 77.6322 169.038 77.6322 165.358V145.522C77.6322 141.842 80.6566 138.834 84.3467 138.834H121.025C123.2 138.834 125.142 139.878 126.373 141.485C127.232 142.608 127.744 144.008 127.744 145.522Z" fill="white"/>
<g opacity="0.35">
<g opacity="0.35">
<g opacity="0.35">
<g opacity="0.35">
<path opacity="0.35" d="M127.743 145.522V165.358C127.743 169.038 124.72 172.049 121.025 172.049H84.3479C80.6529 172.049 77.63 169.038 77.63 165.358V157.939C83.1384 163.532 93.9717 167.044 103.907 167.096C107.1 167.113 109.675 164.598 109.903 161.426C109.905 161.394 109.908 161.362 109.91 161.331C110.155 158.548 112.456 156.295 115.253 156.094C118.439 155.865 121.129 158.209 121.444 161.255C126.253 155.342 124.844 145.064 126.374 141.485C127.234 142.609 127.743 144.007 127.743 145.522Z" fill="#00227B"/>
</g>
</g>
</g>
</g>
<path d="M121.026 173.541H84.3472C79.8187 173.541 76.1344 169.871 76.1344 165.361V145.522C76.1344 141.012 79.8187 137.342 84.3472 137.342H121.026C125.554 137.342 129.239 141.012 129.239 145.522V165.361C129.239 169.871 125.554 173.541 121.026 173.541ZM84.3472 140.323C81.4692 140.323 79.1276 142.655 79.1276 145.522V165.361C79.1276 168.227 81.4692 170.559 84.3472 170.559H121.026C123.904 170.559 126.246 168.227 126.246 165.361V145.522C126.246 142.655 123.904 140.323 121.026 140.323H84.3472Z" fill="#00227B"/>
<path d="M115.68 161.21C118.879 161.21 121.473 158.627 121.473 155.441C121.473 152.255 118.879 149.672 115.68 149.672C112.481 149.672 109.888 152.255 109.888 155.441C109.888 158.627 112.481 161.21 115.68 161.21Z" fill="#22A7F0"/>
<g opacity="0.7">
<g opacity="0.7">
<g opacity="0.7">
<g opacity="0.7">
<path opacity="0.7" d="M121.472 155.441C121.472 155.836 121.435 156.219 121.36 156.594C120.825 153.956 118.485 151.971 115.682 151.971C112.875 151.971 110.535 153.956 110 156.594C109.925 156.219 109.887 155.837 109.887 155.441C109.887 152.253 112.481 149.673 115.682 149.673C118.878 149.673 121.472 152.253 121.472 155.441Z" fill="white"/>
</g>
</g>
</g>
</g>
<g opacity="0.35">
<g opacity="0.35">
<g opacity="0.35">
<g opacity="0.35">
<path opacity="0.35" d="M121.471 155.44C121.471 158.625 118.879 161.208 115.68 161.208C112.482 161.208 109.89 158.625 109.89 155.44C109.89 154.703 110.029 154 110.287 153.353C111.122 155.505 113.223 157.028 115.681 157.028C118.14 157.028 120.24 155.505 121.075 153.353C121.332 154 121.471 154.703 121.471 155.44Z" fill="#00227B"/>
</g>
</g>
</g>
</g>
<path d="M115.68 162.328C111.868 162.328 108.766 159.238 108.766 155.441C108.766 151.643 111.868 148.554 115.68 148.554C119.493 148.554 122.595 151.643 122.595 155.441C122.595 159.238 119.493 162.328 115.68 162.328ZM115.68 150.79C113.106 150.79 111.011 152.877 111.011 155.441C111.011 158.005 113.106 160.091 115.68 160.091C118.255 160.091 120.35 158.005 120.35 155.441C120.35 152.877 118.255 150.79 115.68 150.79Z" fill="#00227B"/>
<path d="M99.2676 173.168C98.6472 173.168 98.1453 172.667 98.1453 172.05V158.463L90.8104 152.963V138.833C90.8104 138.215 91.3131 137.715 91.9326 137.715C92.5522 137.715 93.0549 138.215 93.0549 138.833V151.847L100.39 157.347V172.05C100.39 172.667 99.8871 173.168 99.2676 173.168Z" fill="#00227B"/>
<path d="M103.406 182.73C109.894 182.73 116.133 180.332 121.006 176.065C127.756 170.155 139.119 163.107 151.662 167.628C156.694 169.441 160.124 172.767 162.464 176.447C168.49 162.541 181.13 161.707 186.602 169.589C186.602 169.589 177.405 213.29 174.408 214.263C170.114 215.656 159.796 214.191 159.796 214.191C159.796 214.191 123.902 209.351 103.406 209.351C82.9091 209.351 47.0153 214.191 47.0153 214.191C47.0153 214.191 36.6979 215.655 32.4039 214.263C29.4066 213.29 20.2097 169.589 20.2097 169.589C25.6803 161.707 38.322 162.541 44.3479 176.447C46.687 172.766 50.1171 169.441 55.15 167.628C67.6921 163.107 79.0553 170.155 85.8052 176.065C90.6785 180.332 96.9175 182.73 103.406 182.73Z" fill="white"/>
<g opacity="0.35">
<path d="M186.603 169.587C186.603 169.587 177.405 213.29 174.408 214.263C170.116 215.657 159.796 214.192 159.796 214.192C159.796 214.192 123.904 209.351 103.405 209.351C82.9112 209.351 47.0149 214.192 47.0149 214.192C47.0149 214.192 36.6983 215.657 32.4068 214.263C29.4095 213.29 20.2118 169.587 20.2118 169.587C21.1136 168.29 22.2062 167.228 23.4338 166.423C26.3825 179.237 30.5655 195.967 32.4068 196.564C36.6991 197.954 47.0149 196.489 47.0149 196.489C47.0149 196.489 82.9112 186.806 103.405 186.806C123.904 186.806 159.796 196.489 159.796 196.489C159.796 196.489 170.116 197.954 174.408 196.564C176.249 195.967 180.432 179.237 183.381 166.423C184.609 167.229 185.701 168.291 186.603 169.587Z" fill="#00227B"/>
</g>
<path d="M37.9378 216.35C35.6867 216.35 33.4875 216.182 31.9407 215.681C30.8859 215.338 29.999 214.174 28.3345 209.009C27.3604 205.986 26.1912 201.777 24.8608 196.497C22.4649 186.993 20.1299 176.333 19.2372 172.192C18.7699 170.023 19.4832 167.781 21.1 166.34C24.2034 163.573 28.3633 162.507 32.5117 163.417C35.1264 163.99 37.6704 165.35 39.8688 167.349C41.6896 169.005 43.2726 171.073 44.5923 173.519C47.2704 170.115 50.642 167.667 54.6423 166.226C59.1749 164.592 63.9173 164.267 68.7387 165.261C72.6312 166.065 76.5895 167.729 80.5025 170.21C81.2002 170.653 81.4051 171.574 80.9616 172.269C80.5182 172.964 79.5926 173.168 78.8949 172.726C70.8408 167.619 63.0238 166.376 55.6609 169.03C51.5084 170.527 48.1277 173.29 45.6142 177.246C45.3171 177.713 44.784 177.977 44.2319 177.935C43.679 177.891 43.1952 177.547 42.9747 177.039C40.4571 171.228 36.4091 167.325 31.8683 166.33C28.671 165.629 25.4738 166.443 23.0968 168.563C22.279 169.292 21.9219 170.443 22.1646 171.568C23.0071 175.477 25.2154 185.563 27.5159 194.778C28.7805 199.843 29.9011 203.965 30.8472 207.025C32.1719 211.312 32.8638 212.569 33.1098 212.92C36.4914 213.864 44.097 213.102 46.8055 212.717C46.8088 212.717 46.8121 212.717 46.8154 212.716C47.1749 212.667 83.0449 207.862 103.407 207.862C123.769 207.862 159.638 212.667 159.998 212.716C160.001 212.717 160.005 212.717 160.008 212.717C162.718 213.102 170.323 213.864 173.704 212.92C173.946 212.576 174.619 211.355 175.899 207.243C176.823 204.278 177.917 200.283 179.151 195.367C181.351 186.603 183.46 177.067 184.521 172.163C184.869 170.556 184.264 168.909 182.981 167.967C180.531 166.168 177.495 165.631 174.434 166.455C170.047 167.636 166.284 171.395 163.839 177.04C163.62 177.547 163.136 177.892 162.582 177.936C162.028 177.979 161.497 177.713 161.2 177.246C158.686 173.292 155.306 170.527 151.154 169.031C143.726 166.354 135.842 167.64 127.719 172.855C127.024 173.301 126.098 173.101 125.65 172.409C125.202 171.717 125.402 170.795 126.098 170.348C130.034 167.821 134.018 166.119 137.938 165.291C142.807 164.262 147.596 164.577 152.172 166.227C156.173 167.668 159.544 170.117 162.223 173.521C165.035 168.316 169.028 164.821 173.653 163.577C177.557 162.525 181.604 163.251 184.758 165.566C186.988 167.204 188.043 170.039 187.448 172.791C186.324 177.986 184.096 188.052 181.804 197.088C180.505 202.213 179.363 206.295 178.411 209.222C176.787 214.215 175.915 215.345 174.872 215.682C170.321 217.159 160.113 215.744 159.593 215.67C159.03 215.595 123.508 210.844 103.407 210.844C83.3032 210.844 47.7846 215.595 47.2218 215.67C46.8763 215.717 42.3108 216.35 37.9378 216.35Z" fill="#00227B"/>
<path d="M171.742 214.263H174.408C177.538 214.263 180.376 212.435 181.65 209.588C185.64 200.688 192.916 181.131 186.101 169.197C185.903 168.848 185.691 168.513 185.466 168.192C185.466 168.192 178.923 162.265 174.223 170.65C169.833 178.483 160.617 211.976 171.742 214.263Z" fill="#AFAFB2"/>
<g opacity="0.7">
<g opacity="0.7">
<g opacity="0.7">
<g opacity="0.7">
<path opacity="0.7" d="M171.816 176.233C171.933 176.045 172.051 175.868 172.166 175.703C177.945 167.318 185.99 173.246 185.99 173.246C186.266 173.567 186.528 173.902 186.77 174.25C187.577 175.399 188.223 176.618 188.727 177.894C188.401 174.759 187.587 171.796 186.101 169.197C185.903 168.849 185.691 168.514 185.466 168.193C185.466 168.193 178.924 162.265 174.223 170.65C173.51 171.92 172.673 173.859 171.816 176.233Z" fill="white"/>
</g>
</g>
</g>
</g>
<path d="M188.691 178.788C188.624 178.788 188.556 178.782 188.487 178.771L172.133 176.052C171.461 175.94 171.007 175.307 171.119 174.636C171.231 173.967 171.868 173.514 172.539 173.626L188.892 176.345C189.564 176.456 190.019 177.09 189.907 177.76C189.806 178.363 189.284 178.788 188.691 178.788Z" fill="#00227B"/>
<path d="M188.587 187.588C188.532 187.588 188.477 187.585 188.421 187.576L169.291 185.015C168.616 184.925 168.142 184.306 168.232 183.633C168.323 182.96 168.944 182.488 169.62 182.579L188.75 185.14C189.426 185.23 189.9 185.849 189.809 186.522C189.726 187.14 189.196 187.588 188.587 187.588Z" fill="#00227B"/>
<path d="M186.9 196.207C186.85 196.207 186.8 196.204 186.749 196.198L167.329 193.831C166.653 193.748 166.171 193.135 166.254 192.462C166.337 191.788 166.951 191.308 167.629 191.391L187.048 193.758C187.725 193.841 188.206 194.454 188.124 195.127C188.047 195.751 187.515 196.207 186.9 196.207Z" fill="#00227B"/>
<path d="M183.82 205.607C183.783 205.607 183.746 205.606 183.708 205.603L166.346 204.042C165.667 203.982 165.167 203.383 165.228 202.707C165.289 202.031 165.889 201.532 166.568 201.594L183.93 203.154C184.609 203.215 185.11 203.813 185.048 204.489C184.99 205.127 184.451 205.607 183.82 205.607Z" fill="#00227B"/>
<g opacity="0.35">
<g opacity="0.35">
<g opacity="0.35">
<g opacity="0.35">
<path opacity="0.35" d="M171.741 214.263H174.407C177.537 214.263 180.375 212.435 181.649 209.588C182.681 207.281 183.936 204.264 185.109 200.845C183.509 203.49 180.257 205.167 176.687 205.167H173.51C168.988 204.387 167.286 199.97 167.219 194.181C165.69 203.953 166.11 213.105 171.741 214.263Z" fill="#00227B"/>
</g>
</g>
</g>
</g>
<path d="M174.408 215.492H171.743C171.659 215.492 171.576 215.484 171.493 215.467C169.338 215.023 167.71 213.632 166.653 211.33C164.161 205.903 165.372 196.449 166.827 189.474C168.606 180.95 171.353 173.25 173.146 170.051C174.795 167.109 176.872 165.415 179.319 165.017C183.073 164.408 186.167 167.165 186.297 167.282C186.365 167.344 186.426 167.413 186.479 167.488C186.725 167.839 186.959 168.21 187.176 168.589C190.291 174.044 190.951 181.505 189.141 190.764C187.668 198.292 184.868 205.428 182.778 210.089C181.308 213.371 178.023 215.492 174.408 215.492ZM171.877 213.034H174.408C177.049 213.034 179.45 211.485 180.523 209.088C182.56 204.544 185.288 197.595 186.717 190.296C188.412 181.63 187.844 174.735 185.029 169.805C184.876 169.536 184.712 169.274 184.542 169.023C184.08 168.647 181.979 167.068 179.703 167.446C178.042 167.722 176.561 169.002 175.302 171.249C173.641 174.211 170.954 181.781 169.245 189.974C167.294 199.326 167.17 206.547 168.898 210.308C169.599 211.835 170.574 212.728 171.877 213.034Z" fill="#00227B"/>
<path d="M35.0713 214.263H32.4055C29.2757 214.263 26.438 212.435 25.1636 209.588C21.1732 200.688 13.8975 181.131 20.7124 169.197C20.9107 168.848 21.123 168.513 21.3476 168.192C21.3476 168.192 27.8902 162.265 32.5906 170.65C36.9809 178.483 46.1958 211.976 35.0713 214.263Z" fill="#AFAFB2"/>
<g opacity="0.7">
<g opacity="0.7">
<g opacity="0.7">
<g opacity="0.7">
<path opacity="0.7" d="M34.9965 176.233C34.8789 176.045 34.7612 175.868 34.6469 175.703C28.8678 167.318 20.822 173.246 20.822 173.246C20.5464 173.567 20.2839 173.902 20.042 174.25C19.2349 175.399 18.5899 176.618 18.0855 177.894C18.4113 174.759 19.225 171.796 20.7109 169.197C20.9092 168.849 21.1215 168.514 21.3461 168.193C21.3461 168.193 27.8887 162.265 32.5892 170.65C33.3017 171.92 34.1392 173.859 34.9965 176.233Z" fill="white"/>
</g>
</g>
</g>
</g>
<path d="M18.1212 178.788C17.5288 178.788 17.0064 178.362 16.9052 177.761C16.7933 177.091 17.2466 176.458 17.9196 176.346L34.2729 173.627C34.945 173.515 35.581 173.967 35.6929 174.637C35.8048 175.307 35.3515 175.94 34.6785 176.052L18.3253 178.771C18.257 178.783 18.1887 178.788 18.1212 178.788Z" fill="#00227B"/>
<path d="M18.2246 187.588C17.6158 187.588 17.0859 187.14 17.0028 186.523C16.9123 185.85 17.3862 185.231 18.0617 185.141L37.1926 182.579C37.8689 182.488 38.4893 182.96 38.5806 183.633C38.6711 184.306 38.1972 184.925 37.5217 185.015L18.3908 187.577C18.3349 187.585 18.2798 187.588 18.2246 187.588Z" fill="#00227B"/>
<path d="M19.9128 196.207C19.2982 196.207 18.7659 195.751 18.6894 195.127C18.6063 194.454 19.0876 193.841 19.7647 193.758L39.1844 191.39C39.8607 191.308 40.4761 191.787 40.5592 192.462C40.6423 193.135 40.161 193.748 39.4838 193.831L20.0642 196.198C20.0132 196.205 19.9622 196.207 19.9128 196.207Z" fill="#00227B"/>
<path d="M22.9928 205.607C22.361 205.607 21.8229 205.127 21.7653 204.489C21.7044 203.813 22.2046 203.215 22.8834 203.154L40.2453 201.594C40.9249 201.533 41.5239 202.031 41.5856 202.707C41.6465 203.383 41.1462 203.981 40.4675 204.042L23.1055 205.603C23.0677 205.606 23.0299 205.607 22.9928 205.607Z" fill="#00227B"/>
<g opacity="0.35">
<g opacity="0.35">
<g opacity="0.35">
<g opacity="0.35">
<path opacity="0.35" d="M35.0705 214.263H32.4047C29.2749 214.263 26.4372 212.435 25.1628 209.588C24.131 207.281 22.8763 204.264 21.7031 200.845C23.3033 203.49 26.5549 205.167 30.1249 205.167H33.3024C37.8243 204.387 39.5257 199.97 39.5932 194.181C41.1219 203.953 40.7015 213.105 35.0705 214.263Z" fill="#00227B"/>
</g>
</g>
</g>
</g>
<path d="M35.0707 215.492H32.4049C28.7905 215.492 25.5052 213.371 24.0358 210.088C21.9468 205.429 19.1461 198.293 17.6734 190.765C15.8625 181.506 16.5231 174.045 19.6381 168.589C19.8545 168.21 20.089 167.84 20.3342 167.489C20.3868 167.413 20.4477 167.345 20.516 167.283C20.646 167.165 23.7404 164.408 27.4938 165.018C29.9407 165.416 32.0182 167.109 33.667 170.051C35.4606 173.251 38.207 180.95 39.9858 189.475C41.4413 196.45 42.6524 205.904 40.1603 211.331C39.103 213.633 37.4748 215.024 35.32 215.467C35.2377 215.484 35.1538 215.492 35.0707 215.492ZM22.2701 169.024C22.0998 169.274 21.9369 169.536 21.7839 169.804C18.9684 174.735 18.3999 181.629 20.0956 190.296C21.5239 197.596 24.2513 204.544 26.2893 209.088C27.363 211.486 29.763 213.034 32.4041 213.034H34.9357C36.2382 212.729 37.2139 211.836 37.9149 210.308C39.6419 206.547 39.5193 199.325 37.5686 189.974C35.8589 181.78 33.1717 174.211 31.5114 171.249C30.2517 169.002 28.7708 167.722 27.1104 167.446C24.838 167.069 22.7383 168.643 22.2701 169.024Z" fill="#00227B"/>
<path d="M65.1618 213.141C64.9866 213.141 64.8089 213.1 64.6427 213.013C64.0931 212.727 63.8808 212.051 64.1688 211.504C68.856 202.584 68.9252 192.552 64.3745 181.688C60.9419 173.494 56.0267 167.887 55.9773 167.831C55.5676 167.368 55.612 166.662 56.0769 166.253C56.5418 165.845 57.251 165.888 57.6607 166.351C57.8705 166.588 62.8392 172.246 66.4198 180.764C68.5327 185.789 69.7109 190.763 69.9232 195.546C70.1897 201.56 68.9227 207.278 66.1574 212.54C65.9566 212.923 65.5658 213.141 65.1618 213.141Z" fill="#00227B"/>
<path d="M142.106 213.141C141.701 213.141 141.311 212.923 141.11 212.541C138.345 207.278 137.078 201.561 137.345 195.547C137.557 190.764 138.735 185.79 140.848 180.764C144.429 172.247 149.397 166.588 149.607 166.352C150.018 165.889 150.727 165.845 151.192 166.254C151.657 166.662 151.701 167.368 151.29 167.831C151.241 167.887 146.326 173.494 142.893 181.688C138.343 192.552 138.412 202.584 143.099 211.504C143.386 212.051 143.174 212.726 142.625 213.013C142.459 213.1 142.281 213.141 142.106 213.141Z" fill="#00227B"/>
<g opacity="0.35">
<path d="M140.604 105.726C139.309 107.202 137.947 108.603 136.528 109.919C133.161 113.042 129.471 115.7 125.523 117.806C118.855 121.369 111.457 123.367 103.667 123.403C96.0551 123.437 88.8107 121.596 82.2443 118.249C77.9445 116.054 73.9368 113.217 70.3109 109.837C68.5074 108.152 66.7969 106.337 65.1917 104.403C68.0994 103.509 70.9881 102.472 73.6332 101.447C76.9185 93.5647 80.7501 85.492 85.2186 77.4194H121.594C125.287 84.094 128.546 90.7654 131.42 97.3359C134.16 98.9273 137.314 101.924 140.604 105.726Z" fill="#00227B"/>
</g>
<path d="M158.953 69.7335C158.32 69.8015 157.751 69.3451 157.683 68.7141L154.133 35.8089C154.065 35.1779 154.523 34.6116 155.156 34.5436C161.802 33.8323 167.768 38.6213 168.482 45.2402L169.694 56.4613C170.408 63.0802 165.599 69.0222 158.953 69.7335Z" fill="white"/>
<path d="M158.828 70.0236C158.501 70.0236 158.186 69.9138 157.928 69.7065C157.629 69.4664 157.442 69.1247 157.401 68.7444L153.851 35.8392C153.81 35.4589 153.92 35.0853 154.161 34.7878C154.402 34.4903 154.745 34.3035 155.127 34.2625C161.919 33.5356 168.036 38.4468 168.766 45.2107L169.976 56.4318C170.33 59.7081 169.381 62.9253 167.305 65.4911C165.229 68.0569 162.273 69.6639 158.984 70.0163L158.954 69.7344L158.984 70.0163C158.932 70.0212 158.88 70.0236 158.828 70.0236ZM156.459 34.7566C156.039 34.7566 155.615 34.7788 155.188 34.8247C154.957 34.8492 154.749 34.9623 154.604 35.1418C154.458 35.3221 154.391 35.5474 154.416 35.7777L157.966 68.683C157.991 68.9132 158.105 69.1198 158.286 69.2648C158.467 69.4098 158.693 69.4762 158.924 69.4516C162.063 69.1157 164.882 67.5824 166.863 65.1346C168.844 62.6869 169.749 59.6171 169.412 56.4908L168.201 45.2697C167.55 39.2425 162.414 34.7566 156.459 34.7566Z" fill="#00227B"/>
<g opacity="0.35">
<g opacity="0.35">
<g opacity="0.35">
<g opacity="0.35">
<path opacity="0.35" d="M169.126 51.1994L169.695 56.4621C170.409 63.0785 165.6 69.0222 158.954 69.7359C158.32 69.8048 157.752 69.3442 157.684 68.714L156.737 59.967C156.957 60.3464 157.388 60.5791 157.853 60.5332L158.636 60.4472C163.887 59.8858 167.995 56.0548 169.126 51.1994Z" fill="#00227B"/>
</g>
</g>
</g>
</g>
<path d="M158.826 71.3176C158.204 71.3176 157.605 71.1078 157.114 70.7136C156.544 70.2572 156.188 69.6065 156.11 68.8829L152.56 35.9777C152.482 35.2541 152.691 34.5428 153.15 33.9757C153.608 33.4086 154.261 33.0538 154.988 32.976C162.49 32.1729 169.25 37.5994 170.057 45.0722L171.267 56.2933C171.658 59.913 170.61 63.4678 168.316 66.3032C166.022 69.1378 162.757 70.9136 159.122 71.302C159.024 71.3119 158.925 71.3176 158.826 71.3176ZM158.787 68.1659H158.786C158.786 68.1659 158.786 68.1659 158.787 68.1659ZM155.755 36.0744L159.212 68.1126C161.834 67.7258 164.179 66.3917 165.852 64.3242C167.616 62.1452 168.421 59.4131 168.121 56.6301L166.911 45.409C166.306 39.8071 161.349 35.7007 155.755 36.0744Z" fill="#00227B"/>
<path d="M46.1084 46.2153C46.7419 46.1473 47.3105 46.6037 47.3788 47.2347L50.929 80.14C50.9973 80.771 50.539 81.3373 49.9055 81.4053C43.26 82.1166 37.2942 77.3276 36.58 70.7087L35.3697 59.4876C34.6539 52.8687 39.463 46.9266 46.1084 46.2153Z" fill="white"/>
<path d="M48.6024 81.7585C42.3609 81.7593 36.9776 77.0572 36.2963 70.739L35.0861 59.5179C34.3563 52.754 39.2871 46.6603 46.0782 45.9335L46.1086 46.2154L46.0782 45.9335C46.8655 45.8491 47.5764 46.4194 47.6612 47.2045L51.2114 80.1097C51.2961 80.8948 50.7235 81.602 49.9353 81.6864C49.4885 81.7347 49.0426 81.7585 48.6024 81.7585ZM46.232 46.4915C46.2008 46.4915 46.1703 46.4932 46.1382 46.4964C39.659 47.1897 34.9544 53.0039 35.6513 59.4573L36.8616 70.6784C37.5576 77.1317 43.3943 81.8175 49.8744 81.1242C50.3508 81.0734 50.6972 80.6457 50.6461 80.1712L47.0959 47.2659C47.0482 46.8218 46.6697 46.4915 46.232 46.4915Z" fill="#00227B"/>
<g opacity="0.35">
<g opacity="0.35">
<g opacity="0.35">
<g opacity="0.35">
<path opacity="0.35" d="M49.9472 71.0111L50.9312 80.1401C51.0003 80.7711 50.5379 81.3374 49.9052 81.4054C46.4167 81.7774 43.1125 80.6359 40.659 78.5069C38.4433 76.5844 36.9212 73.8522 36.5814 70.7104L36.0713 65.982C38.4055 69.9286 42.92 72.3682 47.7924 71.8478L48.9977 71.7183C49.4371 71.6708 49.7851 71.3881 49.9472 71.0111Z" fill="#00227B"/>
</g>
</g>
</g>
</g>
<path d="M48.6017 83.0516C41.7053 83.0524 35.7584 77.8578 35.0055 70.8767L33.7952 59.6556C32.9889 52.1828 38.4373 45.45 45.94 44.6469C47.4391 44.4863 48.7917 45.5712 48.953 47.0651L52.5032 79.9712C52.6645 81.4659 51.5751 82.8115 50.0744 82.9721C49.5799 83.0262 49.0879 83.0516 48.6017 83.0516ZM45.8512 47.8371C40.3058 48.6566 36.3384 53.7176 36.9423 59.3196L38.1526 70.5407C38.7573 76.1426 43.7136 80.2482 49.3076 79.8753L45.8512 47.8371Z" fill="#00227B"/>
<path d="M102.537 114.37C133.808 114.37 159.159 89.1208 159.159 57.974C159.159 26.8271 133.808 1.57765 102.537 1.57765C71.265 1.57765 45.9143 26.8271 45.9143 57.974C45.9143 89.1208 71.265 114.37 102.537 114.37Z" fill="white"/>
<path d="M102.482 114.655C95.5397 114.655 88.7576 113.415 82.2916 110.96C75.4157 108.351 69.1866 104.485 63.7753 99.4714C58.364 94.4571 54.0445 88.547 50.9353 81.9051C47.7167 75.0281 45.9444 67.6643 45.6672 60.0178C45.3899 52.3712 46.6248 44.8993 49.3375 37.8091C51.9572 30.9608 55.839 24.7565 60.8726 19.3668C65.9063 13.9771 71.8417 9.67408 78.511 6.57728C85.4156 3.37149 92.8089 1.60634 100.486 1.33018C108.163 1.05401 115.665 2.28405 122.784 4.98586C129.66 7.59507 135.889 11.4614 141.3 16.4749C146.711 21.4893 151.031 27.3993 154.14 34.0412C157.359 40.9182 159.131 48.2821 159.408 55.9286C159.685 63.5751 158.451 71.0471 155.738 78.1372C153.118 84.9856 149.236 91.1898 144.202 96.5795C139.167 101.969 133.234 106.271 126.565 109.368C119.661 112.574 112.267 114.339 104.59 114.615C103.885 114.642 103.182 114.655 102.482 114.655ZM102.564 1.85956C101.879 1.85956 101.196 1.87185 100.506 1.89644C69.4614 3.01256 45.1159 29.076 46.2357 59.9965C46.7779 74.9748 53.1444 88.8469 64.162 99.056C74.6695 108.793 88.2097 114.087 102.486 114.088C103.179 114.088 103.872 114.075 104.568 114.05C119.606 113.51 133.534 107.169 143.784 96.1952C154.034 85.2216 159.38 70.9291 158.838 55.9507C157.744 25.717 132.697 1.85956 102.564 1.85956Z" fill="#00227B"/>
<g opacity="0.35">
<g opacity="0.35">
<g opacity="0.35">
<g opacity="0.35">
<path opacity="0.35" d="M158.299 48.1584C158.751 50.6938 159.029 53.2916 159.125 55.9409C160.248 87.0671 135.829 113.21 104.578 114.335C73.3272 115.454 47.0795 91.1325 45.9498 60.0072C45.9169 59.1123 45.9054 58.2158 45.9161 57.3316C50.7243 84.63 75.125 104.904 103.718 103.877C134.071 102.785 157.975 78.0947 158.299 48.1584Z" fill="#00227B"/>
</g>
</g>
</g>
</g>
<path d="M102.482 115.948C95.3805 115.948 88.4438 114.679 81.8296 112.169C74.7974 109.5 68.4251 105.546 62.8913 100.418C57.3574 95.2896 52.9391 89.2444 49.7592 82.4509C46.4665 75.4165 44.6539 67.8839 44.3709 60.0637C44.0879 52.2434 45.3508 44.6002 48.126 37.3478C50.8057 30.3437 54.7755 23.9969 59.9244 18.4851C65.0732 12.9733 71.1411 8.57192 77.9626 5.40546C85.0252 2.12592 92.588 0.320617 100.44 0.0387174C108.292 -0.243182 115.965 1.01471 123.247 3.7788C130.279 6.44784 136.651 10.4018 142.185 15.5301C147.719 20.6584 152.137 26.7036 155.317 33.4971C158.61 40.5315 160.422 48.0641 160.705 55.8843C160.988 63.7046 159.725 71.3478 156.95 78.6002C154.27 85.6043 150.301 91.9511 145.152 97.4629C140.003 102.975 133.933 107.375 127.113 110.543C120.05 113.822 112.487 115.627 104.636 115.909C103.917 115.935 103.198 115.948 102.482 115.948ZM102.564 3.15354C101.895 3.15354 101.228 3.16584 100.554 3.1896C70.2245 4.2795 46.4401 29.7423 47.5344 59.9506C48.0643 74.584 54.2843 88.1356 65.0477 98.1103C75.3133 107.623 88.5408 112.795 102.489 112.795C103.165 112.795 103.843 112.783 104.523 112.758C119.215 112.231 132.821 106.035 142.836 95.315C152.85 84.5947 158.073 70.6316 157.543 55.9982C156.472 26.4602 132.002 3.15354 102.564 3.15354Z" fill="#00227B"/>
<path d="M158.996 57.3946C159.563 68.4158 156.496 78.8321 150.789 87.6112C146.51 94.1932 128.148 106.267 104.78 107.669C83.1125 108.968 62.7977 98.4627 57.8661 92.351C51.2873 84.1981 47.1694 74.1488 46.6025 63.1277C45.1026 33.9617 69.6398 20.5871 100.678 19.0038C131.715 17.4206 157.496 28.2287 158.996 57.3946Z" fill="#3949AB"/>
<path d="M101.019 108.864C90.2447 108.864 80.8742 106.19 74.6542 103.8C66.7779 100.774 59.8543 96.5467 57.0166 93.0296C50.0519 84.3988 46.0747 74.0775 45.5144 63.1826C45.1425 55.9532 46.3396 49.3933 49.0704 43.6848C51.6415 38.3123 55.585 33.6577 60.7931 29.8488C70.3075 22.8898 84.0797 18.7654 100.621 17.9221C117.162 17.0789 131.285 19.7799 141.463 25.7342C147.034 28.9933 151.435 33.2226 154.544 38.3058C157.846 43.7061 159.71 50.1103 160.081 57.3397C160.641 68.2347 157.742 78.9059 151.7 88.2004C149.19 92.0618 142.954 96.795 135.428 100.552C128.817 103.852 118.145 107.953 104.844 108.75C103.552 108.827 102.275 108.864 101.019 108.864ZM106.461 19.9372C104.588 19.9372 102.679 19.9864 100.732 20.0856C84.617 20.9075 71.252 24.8877 62.0807 31.5951C51.8414 39.0843 46.9987 49.6752 47.6873 63.072C48.2238 73.5088 52.0364 83.3991 58.7123 91.6725C60.6985 94.1342 66.2702 98.2578 75.4374 101.779C82.1816 104.369 92.7343 107.306 104.714 106.588C117.647 105.812 128.026 101.823 134.455 98.6143C143.07 94.3137 148.147 89.682 149.876 87.0228C155.668 78.1134 158.447 67.8872 157.91 57.4504C157.222 44.0536 151.317 34.0109 140.363 27.6026C131.737 22.5563 120.099 19.9372 106.461 19.9372Z" fill="#00227B"/>
<g opacity="0.5">
<g opacity="0.5">
<g opacity="0.5">
<g opacity="0.5">
<path d="M147.723 55.2866C148.429 49.8197 145.778 44.9745 141.801 44.4645C137.824 43.9545 134.027 47.9727 133.32 53.4395C132.613 58.9064 135.265 63.7516 139.242 64.2616C143.219 64.7717 147.016 60.7534 147.723 55.2866Z" fill="white"/>
</g>
</g>
</g>
</g>
<g opacity="0.5">
<g opacity="0.5">
<g opacity="0.5">
<g opacity="0.5">
<path d="M136.468 75.6067C137.138 73.1663 135.976 70.724 133.874 70.1517C131.771 69.5795 129.524 71.0938 128.854 73.5342C128.184 75.9746 129.346 78.4169 131.449 78.9891C133.551 79.5614 135.799 78.047 136.468 75.6067Z" fill="white"/>
</g>
</g>
</g>
</g>
<g opacity="0.35">
<path d="M146.667 30.7429C153.873 36.9218 158.391 45.6795 158.995 57.3931C159.562 68.4167 156.494 78.8322 150.79 87.6113C146.51 94.1933 128.146 106.267 104.778 107.671C96.5276 108.169 88.4753 106.951 81.3896 104.913C110.077 102.577 132.439 87.767 137.746 79.6033C144.991 68.4609 148.882 55.2395 148.16 41.2543C147.971 37.5159 147.458 34.0159 146.667 30.7429Z" fill="#00227B"/>
</g>
<path d="M49.555 39.5579C49.2357 39.5579 48.9149 39.4588 48.6401 39.2531C47.9934 38.7679 47.8444 37.869 48.2846 37.206C50.6344 33.361 53.635 29.8471 57.2025 26.7626C60.6762 23.7601 64.716 21.1386 69.2091 18.9711C73.6084 16.8494 78.4709 15.1498 83.6609 13.919C88.804 12.6996 94.2943 11.9342 99.9812 11.6441C105.574 11.3589 111.055 11.5515 116.27 12.2153C121.533 12.8856 126.537 14.0386 131.142 15.6407C135.854 17.2805 140.166 19.398 143.957 21.9343C147.854 24.5419 151.225 27.6083 153.978 31.0493C154.459 31.5795 154.508 32.3916 154.058 32.9816C153.55 33.6487 152.594 33.7782 151.925 33.2717L151.765 33.1537L151.645 33.0013C141.452 20.2044 122.677 13.524 100.137 14.6737C77.4713 15.83 59.512 24.6312 50.8632 38.8204L50.8237 38.8851L50.7718 38.9531C50.474 39.349 50.0174 39.5579 49.555 39.5579Z" fill="#00227B"/>
<g opacity="0.5">
<g opacity="0.5">
<g opacity="0.5">
<g opacity="0.5">
<path d="M60.1146 79.8344C60.1146 79.8344 49.566 51.5248 64.5452 39.2646C79.5244 27.0045 101.926 25.9088 101.476 27.3659C101.476 27.3659 76.9862 34.61 68.2871 54.6298C61.5791 70.0679 60.1146 79.8344 60.1146 79.8344Z" fill="white"/>
</g>
</g>
</g>
</g>
<path d="M153.853 217.508H53.43C50.1785 217.508 47.5423 214.882 47.5423 211.644C47.5423 209.778 49.0611 208.265 50.9346 208.265H156.348C158.222 208.265 159.741 209.778 159.741 211.644C159.741 214.883 157.105 217.508 153.853 217.508Z" fill="#E6E9FA"/>
<g opacity="0.3">
<g opacity="0.3">
<g opacity="0.3">
<g opacity="0.3">
<path opacity="0.3" d="M159.739 211.644C159.739 212.285 159.635 212.901 159.444 213.478C158.916 212.297 157.73 211.477 156.349 211.477H50.9354C49.9999 211.477 49.1508 211.853 48.537 212.469C48.245 212.76 48.0055 213.099 47.8377 213.479C47.6468 212.902 47.5423 212.287 47.5423 211.645C47.5423 210.714 47.92 209.868 48.5379 209.257C49.1517 208.642 50.0007 208.265 50.9362 208.265H156.349C158.224 208.264 159.739 209.777 159.739 211.644Z" fill="white"/>
</g>
</g>
</g>
</g>
<g opacity="0.35">
<g opacity="0.35">
<g opacity="0.35">
<g opacity="0.35">
<path opacity="0.35" d="M159.739 211.645C159.739 213.262 159.081 214.731 158.014 215.789C156.951 216.851 155.476 217.507 153.853 217.507H53.4317C50.1801 217.507 47.5415 214.883 47.5415 211.645C47.5415 211.022 47.7102 210.437 48.0088 209.934C48.8991 212.032 50.9946 213.508 53.4308 213.508H153.852C155.476 213.508 156.951 212.852 158.013 211.79C158.544 211.26 158.975 210.631 159.27 209.934C159.571 210.437 159.739 211.022 159.739 211.645Z" fill="#00227B"/>
</g>
</g>
</g>
</g>
<path d="M153.854 218.999H53.4306C49.3588 218.999 46.0464 215.7 46.0464 211.645C46.0464 208.96 48.2398 206.775 50.9352 206.775H156.349C159.044 206.775 161.238 208.96 161.238 211.645C161.238 215.699 157.925 218.999 153.854 218.999ZM50.9344 209.757C49.8895 209.757 49.0387 210.603 49.0387 211.645C49.0387 214.056 51.0084 216.018 53.4298 216.018H153.854C156.275 216.018 158.245 214.056 158.245 211.645C158.245 210.604 157.395 209.757 156.349 209.757H50.9344Z" fill="#00227B"/>
<path d="M165.603 142.244L155.781 208.263H51.5047L51.1493 205.875L41.6776 142.244C41.3675 140.154 42.9949 138.279 45.1127 138.279H162.167C164.29 138.279 165.913 140.154 165.603 142.244Z" fill="#FF66AC"/>
<path d="M165.603 142.244L155.781 208.263H51.5047L51.1493 205.875L41.6776 142.244C41.3675 140.154 42.9949 138.279 45.1127 138.279H162.167C164.29 138.279 165.913 140.154 165.603 142.244Z" fill="#E6E9FA"/>
<g opacity="0.5">
<g opacity="0.5">
<g opacity="0.5">
<g opacity="0.5">
<path opacity="0.5" d="M45.3805 146.342C45.0703 144.252 46.6977 142.377 48.8155 142.377H165.583L165.603 142.245C165.913 140.154 164.29 138.279 162.168 138.279H45.1139C42.9961 138.279 41.3687 140.154 41.6789 142.245L51.1497 205.876L51.5051 208.264H54.5979L45.3805 146.342Z" fill="white"/>
</g>
</g>
</g>
</g>
<g opacity="0.35">
<g opacity="0.35">
<g opacity="0.35">
<g opacity="0.35">
<path opacity="0.35" d="M158.877 138.279H150.657C153.774 149.651 152.054 175.332 131.948 188.753C106.707 205.602 61.2182 205.494 51.5607 205.875L51.9161 208.263H152.49L162.312 142.244C162.622 140.154 160.999 138.279 158.877 138.279Z" fill="#00227B"/>
</g>
</g>
</g>
</g>
<path d="M157.07 209.757H50.2134L40.1996 142.462C39.9873 141.037 40.4077 139.595 41.3523 138.504C42.2968 137.413 43.6683 136.788 45.1139 136.788H162.17C163.616 136.788 164.987 137.413 165.932 138.504C166.876 139.595 167.296 141.037 167.084 142.462L157.07 209.757ZM52.796 206.774H154.488L164.123 142.024C164.209 141.45 164.046 140.891 163.665 140.451C163.284 140.011 162.753 139.769 162.17 139.769H45.1139C44.5306 139.769 43.9999 140.012 43.619 140.451C43.238 140.891 43.0751 141.45 43.1607 142.024L52.796 206.774Z" fill="#00227B"/>
<g opacity="0.3">
<g opacity="0.3">
<g opacity="0.3">
<g opacity="0.3">
<path opacity="0.3" d="M59.8052 192.839C55.8493 184.155 52.9688 169.329 53.618 160.604C54.2671 151.88 59.3477 154.549 60.9225 165.725C65.1128 195.469 61.5708 196.717 59.8052 192.839Z" fill="white"/>
</g>
</g>
</g>
</g>
<path d="M117.265 165.781C117.393 164.666 117.541 163.54 117.321 162.406C117.223 162.283 117.134 162.157 117.036 162.034C116.712 161.918 116.396 161.766 116.059 161.682C113.686 161.071 111.28 160.83 108.837 161.039C105.65 161.313 102.725 162.292 100.21 164.31C99.2994 165.038 98.4693 165.86 97.6193 166.657C97.3914 166.873 97.2162 166.963 96.8961 166.818C96.1433 166.477 95.3321 166.324 94.5085 166.283C92.2994 166.183 90.328 166.895 88.4891 168.044C86.4964 169.295 84.8904 170.966 83.3946 172.755C82.7578 173.513 83.0054 174.358 83.9533 174.676C84.5514 174.871 85.1495 175.062 85.7477 175.257C87.181 175.719 88.6109 176.177 90.0401 176.638C90.0368 176.682 90.0409 176.705 90.0343 176.728C90.0228 176.755 90.0104 176.787 89.9907 176.814C89.3942 177.578 89.539 178.285 90.1676 178.948C90.2351 179.022 90.2935 179.11 90.3527 179.189C90.6818 179.62 91.0183 180.056 91.3672 180.505C90.8908 180.872 90.4226 181.183 90.0088 181.559C89.7998 181.749 89.6155 182.024 89.5365 182.297C89.4024 182.737 89.6311 183.187 90.0244 183.418C90.4416 183.668 90.871 183.657 91.2594 183.378C91.7522 183.029 92.2228 182.651 92.7239 182.27C93.197 182.891 93.6454 183.478 94.0955 184.059C94.6113 184.72 94.9668 184.833 95.7665 184.613C95.9121 184.568 96.0561 184.536 96.2281 184.495C96.2396 184.665 96.2527 184.802 96.2601 184.93C96.3622 186.988 96.456 189.05 96.5695 191.103C96.6213 192.076 97.3931 192.536 98.2759 192.119C99.0732 191.744 99.8696 191.348 100.651 190.926C102.452 189.95 104.091 188.755 105.399 187.166C107.035 185.167 107.941 182.933 107.517 180.295C107.499 180.191 107.586 180.013 107.677 179.96C108.48 179.444 109.304 178.961 110.108 178.442C111.925 177.263 113.385 175.73 114.527 173.9C116.079 171.411 116.935 168.68 117.265 165.781ZM91.2224 174.689C89.5678 174.152 87.8523 173.595 86.09 173.024C87.9107 171.096 89.8377 169.413 92.4326 168.702C93.5541 168.395 94.8499 168.421 95.6151 168.731C94.1621 170.706 92.7058 172.681 91.2224 174.689ZM105.139 183.16C104.719 184.496 103.916 185.584 102.927 186.555C101.698 187.747 100.267 188.637 98.7202 189.448C98.6272 187.555 98.5318 185.703 98.438 183.89C100.777 182.983 103.064 182.099 105.363 181.209C105.452 181.84 105.343 182.509 105.139 183.16ZM113.777 170.486C113.024 172.255 112.037 173.866 110.628 175.2C109.541 176.224 108.309 177.045 107.01 177.775C103.491 179.754 99.7182 181.118 95.8611 182.272C95.6727 182.326 95.5575 182.316 95.4333 182.144C95.1642 181.763 94.8623 181.396 94.5776 181.02C94.5587 180.999 94.5521 180.963 94.5249 180.896C94.6237 180.818 94.729 180.74 94.8351 180.659C97.036 178.975 99.2476 177.298 101.449 175.611C102.085 175.13 102.113 174.304 101.524 173.827C101.113 173.491 100.571 173.496 100.096 173.852C98.7712 174.858 97.4499 175.865 96.1285 176.875C95.1428 177.626 94.1654 178.373 93.1419 179.155C92.7905 178.698 92.4516 178.28 92.1455 177.841C92.0937 177.763 92.1463 177.564 92.2171 177.467C93.3903 175.723 94.5537 173.97 95.7747 172.257C96.9825 170.555 98.3557 168.984 99.8663 167.541C101.282 166.178 102.818 164.975 104.673 164.258C105.863 163.797 107.09 163.483 108.358 163.348C108.473 163.332 108.64 163.446 108.722 163.552C110.011 165.212 111.285 166.875 112.562 168.541C112.946 169.037 113.324 169.542 113.719 170.032C113.838 170.18 113.852 170.306 113.777 170.486ZM114.541 168.163C113.267 166.501 112.023 164.884 110.778 163.26C110.779 163.223 110.79 163.18 110.796 163.14C112.246 163.313 113.7 163.49 115.169 163.665C115.142 165.241 114.908 166.684 114.541 168.163Z" fill="#00227B"/>
<path d="M113.721 170.032C113.325 169.542 112.948 169.036 112.564 168.54C111.287 166.874 110.013 165.211 108.724 163.551C108.642 163.445 108.475 163.331 108.36 163.347C107.092 163.482 105.865 163.796 104.675 164.258C102.819 164.975 101.284 166.178 99.8683 167.54C98.3577 168.983 96.9845 170.554 95.7767 172.256C94.5558 173.97 93.3924 175.723 92.2191 177.466C92.1483 177.563 92.0957 177.762 92.1475 177.84C92.4528 178.28 92.7917 178.697 93.1439 179.154C94.1674 178.372 95.1449 177.624 96.1305 176.874C97.4519 175.864 98.7732 174.857 100.098 173.851C100.573 173.496 101.114 173.491 101.526 173.826C102.115 174.304 102.088 175.13 101.451 175.611C99.2496 177.297 97.038 178.975 94.8371 180.658C94.731 180.739 94.6249 180.817 94.527 180.895C94.5541 180.963 94.5607 180.998 94.5796 181.019C94.8643 181.395 95.1662 181.762 95.4353 182.143C95.5595 182.316 95.6747 182.325 95.8631 182.271C99.7202 181.117 103.493 179.753 107.012 177.774C108.31 177.045 109.543 176.223 110.63 175.199C112.038 173.865 113.026 172.254 113.779 170.485C113.853 170.306 113.838 170.18 113.721 170.032ZM109.858 172.569C108.176 173.832 105.795 173.523 104.531 171.87C103.259 170.219 103.58 167.849 105.247 166.569C106.883 165.314 109.265 165.638 110.541 167.29C111.803 168.931 111.495 171.336 109.858 172.569Z" fill="white"/>
<path d="M114.541 168.162C113.266 166.503 112.022 164.884 110.777 163.26C110.782 163.222 110.79 163.182 110.796 163.14C112.246 163.314 113.701 163.491 115.171 163.666C115.143 165.239 114.907 166.684 114.541 168.162Z" fill="#DB2C2C"/>
<path d="M95.6156 168.732C94.1609 170.704 92.7046 172.681 91.2228 174.69C89.5658 174.15 87.8503 173.595 86.0888 173.024C87.9112 171.094 89.8373 169.411 92.4323 168.702C93.5537 168.394 94.8479 168.421 95.6156 168.732Z" fill="#DB2C2C"/>
<path d="M102.925 186.555C101.697 187.748 100.267 188.639 98.719 189.448C98.6252 187.557 98.5306 185.705 98.4376 183.89C100.777 182.984 103.063 182.101 105.365 181.208C105.453 181.841 105.342 182.508 105.141 183.161C104.72 184.498 103.917 185.585 102.925 186.555Z" fill="#DB2C2C"/>
<path d="M110.54 167.29C109.265 165.638 106.882 165.315 105.246 166.569C103.579 167.85 103.258 170.219 104.53 171.87C105.794 173.523 108.175 173.832 109.857 172.569C111.494 171.336 111.802 168.931 110.54 167.29ZM108.723 171.175C107.871 171.818 106.619 171.648 105.955 170.8C105.268 169.926 105.455 168.641 106.365 167.969C107.216 167.333 108.492 167.517 109.133 168.37C109.803 169.256 109.619 170.501 108.723 171.175Z" fill="#00227B"/>
<path d="M108.722 171.175C107.87 171.818 106.618 171.648 105.952 170.799C105.268 169.926 105.454 168.641 106.363 167.969C107.216 167.335 108.49 167.517 109.131 168.368C109.801 169.256 109.619 170.502 108.722 171.175Z" fill="#22A7F0"/>
<path d="M165.085 145.728C165.085 145.728 157.004 141.908 149.415 145.334C142.148 148.615 137.006 171.975 146.422 177.893C152.233 181.545 156.189 178.319 159.477 179.266C164.353 180.671 174.358 156.618 165.085 145.728Z" fill="white"/>
<g opacity="0.35">
<path d="M168.732 160.93C167.774 170.721 162.584 180.161 159.478 179.266C156.189 178.32 152.234 181.547 146.423 177.895C141.924 175.066 140.75 168.261 141.543 161.559C142.078 165.469 143.593 168.819 146.423 170.597C152.234 174.245 156.103 172.55 159.478 171.969C163.65 171.249 167.052 166.71 168.732 160.93Z" fill="#00227B"/>
</g>
<path d="M152.381 181.17C150.42 181.17 148.151 180.743 145.623 179.154C143.359 177.731 141.724 175.429 140.764 172.312C139.958 169.696 139.657 166.509 139.892 163.094C140.171 159.05 141.17 154.901 142.703 151.411C143.874 148.746 145.883 145.292 148.796 143.976C156.924 140.307 165.37 144.212 165.726 144.38L166.017 144.518L166.225 144.763C170.469 149.747 170.714 156.633 170.172 161.531C169.562 167.05 167.606 172.905 165.068 176.81C162.525 180.722 160.397 181.084 159.059 180.699C158.191 180.449 157.094 180.623 155.824 180.826C154.82 180.986 153.667 181.17 152.381 181.17ZM156.332 145.394C154.058 145.394 151.949 145.828 150.033 146.693C148.458 147.404 146.785 149.56 145.446 152.608C144.068 155.745 143.132 159.641 142.879 163.3C142.434 169.759 144.016 174.619 147.22 176.633C150.451 178.664 152.943 178.266 155.353 177.882C156.91 177.634 158.381 177.399 159.893 177.835C160.066 177.865 161.312 177.386 163.068 174.355C167.165 167.287 169.763 153.939 164.159 146.951C163.523 146.688 161.889 146.069 159.749 145.699C158.574 145.496 157.433 145.394 156.332 145.394Z" fill="#00227B"/>
</svg>
