<svg width="200" height="49" viewBox="0 0 200 49" fill="none" xmlns="http://www.w3.org/2000/svg">
<g clip-path="url(#clip0_3_15927)">
  <path
    d="M45.2321 10.8415C45.2172 10.0271 44.9339 8.29873 44.6198 7.56726C44.3058 6.83579 43.8796 6.20614 43.3413 5.67827C42.788 5.15041 42.1562 4.73944 41.4459 4.44534C40.7356 4.15125 39.9842 4.0042 39.1916 4.0042C34.1926 4.0042 30.4434 4.0042 27.9439 4.0042C25.4432 4.0042 21.6922 4.0042 16.6909 4.0042V0H39.3038C40.6347 0 41.8945 0.248846 43.0833 0.746546C44.2722 1.24425 45.3152 1.94554 46.2124 2.85045C47.1096 3.74027 47.8087 4.78467 48.3097 5.98368C48.8106 7.18268 49.2307 9.66137 49.2307 11.0037V12.9787H45.2321C45.2321 12.5342 45.2358 10.9224 45.2321 10.8415Z"
    fill="#933183"
  />
  <path
    d="M38.311 45.0201C39.1292 45.0052 40.8657 44.7232 41.6006 44.4107C42.3355 44.0981 42.9682 43.6739 43.4985 43.1381C44.0289 42.5874 44.4418 41.9586 44.7372 41.2516C45.0327 40.5446 45.1805 39.7967 45.1805 39.0079V16.6126H49.2035V39.1195C49.2035 40.4442 48.9535 41.6981 48.4535 42.8814C47.9534 44.0646 47.2488 45.1027 46.3396 45.9958C45.4456 46.8888 44.3963 47.5846 43.1917 48.0832C41.987 48.5818 39.4966 48.9999 38.148 48.9999H36.1637V45.0201C36.6103 45.0201 38.2297 45.0238 38.311 45.0201Z"
    fill="white"
  />
  <path
    d="M3.99859 38.1313C4.01355 38.9457 4.29684 40.6741 4.61087 41.4055C4.92489 42.137 5.35107 42.7666 5.88941 43.2945C6.4427 43.8224 7.07448 44.2333 7.78479 44.5274C8.49509 44.8215 9.2465 44.9686 10.0391 44.9686H32.5398V48.9728H9.9269C8.59602 48.9728 7.33618 48.7239 6.14736 48.2262C4.95853 47.7285 3.91552 47.0272 3.0183 46.1223C2.12107 45.2325 1.42199 44.1881 0.921042 42.9891C0.420091 41.7901 0 39.3114 0 37.9691V35.9941H3.99859C3.99859 36.4386 3.99486 38.0504 3.99859 38.1313Z"
    fill="#76B515"
  />
  <path
    d="M13.0398 4.02538H10.8926C10.0743 4.04027 8.33781 4.32223 7.6029 4.63478C6.86799 4.94734 6.23537 5.37152 5.70502 5.90733C5.17467 6.45803 4.76176 7.08685 4.46628 7.79383C4.1708 8.5008 4.02306 9.24869 4.02306 10.0375C4.02306 13.0227 4.02306 15.2616 4.02306 16.7542C4.02306 20.2383 4.02306 25.4645 4.02306 32.4328C3.59794 32.4328 0.149844 32.4328 0 32.4328L0 9.9259C0 8.60125 0.250018 7.34732 0.750062 6.16407C1.25011 4.98082 1.9547 3.9427 2.86387 3.04968C3.75789 2.15666 4.80721 1.46086 6.01186 0.962257C7.21651 0.463654 9.70688 0.0455322 11.0555 0.0455322C11.1973 0.0455322 13.0398 0.0455322 13.0398 0.0455322C13.0398 1.14483 13.0398 3.17867 13.0398 4.02538Z"
    fill="#FD5C02"
  />
  <path
    d="M16.7158 20.2053C16.7158 19.3181 16.886 18.4857 17.2266 17.7081C17.5671 16.9305 18.0279 16.2526 18.6088 15.6744C19.1997 15.0862 19.8858 14.6226 20.6671 14.2837C21.4483 13.9447 22.2847 13.7753 23.1761 13.7753H33.0619V18.067H23.1761C22.8756 18.067 22.5952 18.1218 22.3347 18.2314C22.0743 18.3411 21.844 18.4956 21.6436 18.695C21.4533 18.8844 21.3031 19.1087 21.1929 19.3679C21.0827 19.6271 21.0277 19.9062 21.0277 20.2053C21.0277 20.5044 21.0827 20.7885 21.1929 21.0577C21.3031 21.3169 21.4533 21.5462 21.6436 21.7455C21.844 21.935 22.0743 22.0845 22.3347 22.1942C22.5952 22.3038 22.8756 22.3586 23.1761 22.3586H27.488C28.3794 22.3586 29.2158 22.5281 29.997 22.8671C30.7883 23.196 31.4744 23.6546 32.0553 24.2428C32.6462 24.821 33.107 25.5039 33.4375 26.2914C33.7781 27.069 33.9483 27.9014 33.9483 28.7887C33.9483 29.6759 33.7781 30.5084 33.4375 31.2859C33.107 32.0635 32.6462 32.7464 32.0553 33.3346C31.4744 33.9128 30.7883 34.3714 29.997 34.7103C29.2158 35.0493 28.3794 35.2188 27.488 35.2188H17.9177V30.9271H27.488C27.7885 30.9271 28.0689 30.8722 28.3293 30.7626C28.5898 30.6529 28.8151 30.5034 29.0054 30.314C29.2057 30.1146 29.361 29.8853 29.4712 29.6261C29.5813 29.3669 29.6364 29.0878 29.6364 28.7887C29.6364 28.4896 29.5813 28.2105 29.4712 27.9513C29.361 27.6921 29.2057 27.4678 29.0054 27.2784C28.8151 27.079 28.5898 26.9245 28.3293 26.8148C28.0689 26.7052 27.7885 26.6503 27.488 26.6503H23.1761C22.2847 26.6503 21.4483 26.4809 20.6671 26.1419C19.8858 25.803 19.1997 25.3444 18.6088 24.7662C18.0279 24.178 17.5671 23.4951 17.2266 22.7175C16.886 21.93 16.7158 21.0926 16.7158 20.2053Z"
    fill="white"
  />
</g>
<rect x="61.5385" y="4.62891" width="47.6923" height="18.375" rx="9.1875" fill="#00227B" />
<path
  d="M72.0887 18.4102C71.2488 18.4102 70.457 18.2698 69.7133 17.9891C68.9784 17.7083 68.3616 17.317 67.8629 16.8151C67.7492 16.713 67.6923 16.5897 67.6923 16.4451C67.6923 16.2664 67.7711 16.109 67.9285 15.9729C68.0423 15.8623 68.1691 15.807 68.3091 15.807C68.4928 15.807 68.681 15.8964 68.8734 16.075C69.2671 16.4493 69.7396 16.7385 70.2908 16.9427C70.8507 17.1384 71.45 17.2362 72.0887 17.2362C72.7361 17.2362 73.2348 17.1256 73.5847 16.9044C73.9434 16.6832 74.1228 16.3727 74.1228 15.9729C74.1228 15.5816 73.9391 15.2668 73.5716 15.0286C73.2042 14.7819 72.5786 14.565 71.695 14.3779C70.3914 14.1056 69.4465 13.7484 68.8603 13.306C68.2741 12.8551 67.981 12.2766 67.981 11.5706C67.981 11.1112 68.1298 10.7029 68.4272 10.3456C68.7334 9.98828 69.1578 9.71181 69.7002 9.51615C70.2514 9.32049 70.8857 9.22266 71.6031 9.22266C72.408 9.22266 73.1298 9.35451 73.7685 9.61823C74.4159 9.88194 74.8927 10.2477 75.1989 10.7156C75.2864 10.8517 75.3301 10.9836 75.3301 11.1112C75.3301 11.2984 75.2339 11.4557 75.0414 11.5833C74.9277 11.6514 74.814 11.6854 74.7002 11.6854C74.5952 11.6854 74.4902 11.6599 74.3853 11.6089C74.2803 11.5578 74.1928 11.4898 74.1228 11.4047C73.8691 11.0814 73.5191 10.8347 73.0729 10.6646C72.6355 10.4859 72.1455 10.3966 71.6031 10.3966C70.9207 10.3966 70.3957 10.4987 70.0283 10.7029C69.6696 10.8985 69.4902 11.1878 69.4902 11.5706C69.4902 11.9279 69.6652 12.2214 70.0152 12.451C70.3651 12.6722 70.9819 12.8806 71.8656 13.0763C73.2042 13.3826 74.1665 13.7611 74.7527 14.212C75.3389 14.6628 75.632 15.2498 75.632 15.9729C75.632 16.4578 75.4833 16.8874 75.1858 17.2617C74.8971 17.6275 74.4859 17.9125 73.9522 18.1167C73.4185 18.3123 72.7973 18.4102 72.0887 18.4102Z"
  fill="white"
/>
<path
  d="M77.8515 18.4102C77.624 18.4102 77.4447 18.3506 77.3134 18.2315C77.1822 18.1124 77.1166 17.9465 77.1166 17.7339V11.124C77.1166 10.571 77.2828 10.1372 77.6153 9.8224C77.9477 9.50764 78.4114 9.35026 79.0063 9.35026H81.2373C82.5322 9.35026 83.512 9.61398 84.177 10.1414C84.8506 10.6688 85.1875 11.4472 85.1875 12.4766C85.1875 13.4889 84.855 14.2588 84.1901 14.7862C83.5339 15.3051 82.5715 15.5646 81.3029 15.5646H78.6126V17.7339C78.6126 17.938 78.5426 18.1039 78.4027 18.2315C78.2627 18.3506 78.079 18.4102 77.8515 18.4102ZM81.2898 14.4161C82.8821 14.4161 83.6783 13.7696 83.6783 12.4766C83.6783 11.796 83.4771 11.2941 83.0746 10.9708C82.6809 10.6476 82.0903 10.4859 81.3029 10.4859H79.2163C79.0238 10.4859 78.8751 10.5455 78.7701 10.6646C78.6651 10.7837 78.6126 10.9453 78.6126 11.1495V14.4161H81.2898Z"
  fill="white"
/>
<path
  d="M88.6329 18.2826C88.0117 18.2826 87.5261 18.1252 87.1762 17.8104C86.835 17.4872 86.6644 17.0405 86.6644 16.4706V11.124C86.6644 10.571 86.8306 10.1372 87.1631 9.8224C87.4955 9.50764 87.9592 9.35026 88.5541 9.35026H92.6355C92.863 9.35026 93.038 9.4013 93.1605 9.50339C93.2829 9.59696 93.3442 9.73733 93.3442 9.92448C93.3442 10.1031 93.2829 10.2435 93.1605 10.3456C93.038 10.4391 92.863 10.4859 92.6355 10.4859H88.7641C88.5716 10.4859 88.4229 10.5455 88.3179 10.6646C88.2129 10.7837 88.1604 10.9453 88.1604 11.1495V13.1529H91.6381C91.8656 13.1529 92.0406 13.2039 92.1631 13.306C92.2856 13.3996 92.3468 13.5399 92.3468 13.7271C92.3468 13.9057 92.2856 14.0461 92.1631 14.1482C92.0406 14.2418 91.8656 14.2885 91.6381 14.2885H88.1604V16.4833C88.1604 16.6875 88.2129 16.8491 88.3179 16.9682C88.4229 17.0873 88.5716 17.1469 88.7641 17.1469H92.9242C93.1517 17.1469 93.3267 17.1979 93.4492 17.3C93.5717 17.3936 93.6329 17.5339 93.6329 17.7211C93.6329 17.8997 93.5717 18.0401 93.4492 18.1422C93.3267 18.2358 93.1517 18.2826 92.9242 18.2826H88.6329Z"
  fill="white"
/>
<path
  d="M99.0481 18.4102C98.0857 18.4102 97.2458 18.2273 96.5284 17.8615C95.8197 17.4872 95.2729 16.9555 94.8879 16.2664C94.5117 15.5773 94.3236 14.7649 94.3236 13.8292C94.3236 12.8934 94.5117 12.081 94.8879 11.3919C95.2729 10.6944 95.8197 10.1584 96.5284 9.78411C97.237 9.40981 98.0725 9.22266 99.0349 9.22266C99.8223 9.22266 100.553 9.35451 101.227 9.61823C101.9 9.88194 102.408 10.2392 102.749 10.6901C102.845 10.8262 102.893 10.9496 102.893 11.0602C102.893 11.2473 102.793 11.4132 102.591 11.5578C102.478 11.6259 102.36 11.6599 102.237 11.6599C102.123 11.6599 102.01 11.6344 101.896 11.5833C101.791 11.5323 101.699 11.4642 101.62 11.3792C101.332 11.0389 100.973 10.7879 100.544 10.6263C100.124 10.4647 99.6211 10.3839 99.0349 10.3839C98.0288 10.3839 97.2414 10.6901 96.6727 11.3026C96.1128 11.9066 95.8328 12.7488 95.8328 13.8292C95.8328 14.8925 96.1172 15.7305 96.6858 16.343C97.2545 16.947 98.0419 17.249 99.0481 17.249C100.238 17.249 101.152 16.9172 101.791 16.2536C102.001 16.0495 102.215 15.9474 102.434 15.9474C102.574 15.9474 102.701 15.9899 102.814 16.075C102.989 16.2196 103.077 16.377 103.077 16.5471C103.077 16.6918 103.024 16.8279 102.919 16.9555C102.543 17.4063 102.014 17.7636 101.332 18.0273C100.649 18.2826 99.8879 18.4102 99.0481 18.4102Z"
  fill="white"
/>
<path
  d="M62.7892 44.4414C62.3494 44.4414 61.9975 44.328 61.7336 44.1011C61.4697 43.8743 61.3377 43.5624 61.3377 43.1654V32.4891C61.3377 31.4967 61.631 30.724 62.2174 30.171C62.8185 29.6181 63.6469 29.3416 64.7025 29.3416H68.4191C70.6476 29.3416 72.341 29.7882 73.4992 30.6814C74.6574 31.5747 75.2365 32.8861 75.2365 34.6159C75.2365 36.3456 74.6721 37.6571 73.5432 38.5503C72.4143 39.4436 70.7502 39.8902 68.551 39.8902H64.2626V43.1654C64.2626 43.5482 64.1234 43.8601 63.8448 44.1011C63.5809 44.328 63.229 44.4414 62.7892 44.4414ZM68.529 37.6997C71.0361 37.6997 72.2896 36.6717 72.2896 34.6159C72.2896 32.56 71.0361 31.5321 68.529 31.5321H65.2083C64.9151 31.5321 64.6805 31.6243 64.5046 31.8086C64.3433 31.9929 64.2626 32.2481 64.2626 32.5742V37.6997H68.529Z"
  fill="white"
/>
<path
  d="M77.4879 32.4891C77.4879 31.4967 77.7812 30.724 78.3676 30.171C78.9687 29.6181 79.7971 29.3416 80.8527 29.3416H84.7672C86.9517 29.3416 88.6011 29.7527 89.7154 30.5751C90.8296 31.3974 91.3867 32.6238 91.3867 34.2543C91.3867 35.7714 90.9176 36.9553 89.9793 37.806C89.0556 38.6567 87.8094 39.082 86.2407 39.082L89.5834 42.2934C89.8473 42.5486 89.9793 42.8393 89.9793 43.1654C89.9793 43.5056 89.8253 43.8034 89.5174 44.0586C89.1949 44.2996 88.8797 44.4201 88.5718 44.4201C88.1466 44.4201 87.7581 44.2358 87.4062 43.8672L82.656 39.1671H80.4128V43.1654C80.4128 43.5624 80.2736 43.8743 79.995 44.1011C79.7164 44.328 79.3646 44.4414 78.9394 44.4414C78.4996 44.4414 78.1477 44.328 77.8838 44.1011C77.6199 43.8743 77.4879 43.5624 77.4879 43.1654V32.4891ZM84.6793 36.9766C85.6469 36.9766 86.4019 36.8844 86.9444 36.7001C87.4869 36.5158 87.8681 36.2322 88.088 35.8494C88.3226 35.4524 88.4398 34.9207 88.4398 34.2543C88.4398 33.2902 88.132 32.5955 87.5162 32.1701C86.9151 31.7448 85.9694 31.5321 84.6793 31.5321H81.3585C81.0653 31.5321 80.8307 31.6243 80.6548 31.8086C80.4935 31.9929 80.4128 32.2481 80.4128 32.5742V36.9766H84.6793Z"
  fill="white"
/>
<path
  d="M101.085 44.4414C99.3694 44.4414 97.8886 44.1224 96.6424 43.4844C95.4109 42.8322 94.4726 41.9319 93.8275 40.7834C93.1824 39.6208 92.8598 38.288 92.8598 36.7852C92.8598 35.2823 93.1824 33.9566 93.8275 32.8082C94.4726 31.6455 95.4109 30.7452 96.6424 30.1072C97.8886 29.455 99.3694 29.1289 101.085 29.1289C102.8 29.1289 104.274 29.455 105.505 30.1072C106.751 30.7452 107.697 31.6455 108.342 32.8082C108.987 33.9566 109.31 35.2823 109.31 36.7852C109.31 38.288 108.987 39.6208 108.342 40.7834C107.697 41.9319 106.751 42.8322 105.505 43.4844C104.274 44.1224 102.8 44.4414 101.085 44.4414ZM101.085 42.2083C102.756 42.2083 104.054 41.7263 104.977 40.7622C105.901 39.7839 106.363 38.4582 106.363 36.7852C106.363 35.0979 105.879 33.7723 104.911 32.8082C103.958 31.844 102.61 31.362 100.865 31.362C99.2668 31.362 98.0206 31.8582 97.1262 32.8507C96.2466 33.829 95.8067 35.1405 95.8067 36.7852C95.8067 38.4582 96.2686 39.7839 97.1922 40.7622C98.1159 41.7263 99.4134 42.2083 101.085 42.2083Z"
  fill="white"
/>
<path
  d="M116.142 44.4414C114.969 44.4414 113.877 44.2287 112.865 43.8034C111.854 43.3639 111.033 42.7542 110.402 41.9744C110.212 41.7334 110.117 41.4852 110.117 41.23C110.117 40.8898 110.285 40.5778 110.622 40.2943C110.857 40.11 111.128 40.0178 111.436 40.0178C111.876 40.0178 112.264 40.2305 112.602 40.6558C112.968 41.1379 113.459 41.5136 114.075 41.783C114.705 42.0524 115.395 42.1871 116.142 42.1871C117.037 42.1871 117.696 41.946 118.122 41.464C118.547 40.9819 118.759 40.2446 118.759 39.2522V30.4049C118.759 30.008 118.891 29.696 119.155 29.4692C119.419 29.2423 119.771 29.1289 120.211 29.1289C120.651 29.1289 121.002 29.2494 121.266 29.4905C121.545 29.7173 121.684 30.0221 121.684 30.4049V39.1671C121.684 40.2305 121.457 41.1591 121.002 41.9531C120.548 42.7471 119.903 43.3639 119.067 43.8034C118.231 44.2287 117.257 44.4414 116.142 44.4414Z"
  fill="white"
/>
<path
  d="M127.546 44.2287C126.432 44.2287 125.567 43.9452 124.951 43.378C124.335 42.8109 124.027 42.0169 124.027 40.9961V32.4891C124.027 31.4967 124.32 30.724 124.907 30.171C125.508 29.6181 126.336 29.3416 127.392 29.3416H134.231C134.671 29.3416 135.008 29.4408 135.243 29.6393C135.478 29.8236 135.595 30.093 135.595 30.4475C135.595 30.7878 135.47 31.0571 135.221 31.2556C134.986 31.44 134.657 31.5321 134.231 31.5321H127.898C127.604 31.5321 127.37 31.6243 127.194 31.8086C127.033 31.9929 126.952 32.2481 126.952 32.5742V35.5304H132.56C133 35.5304 133.337 35.6296 133.572 35.8281C133.806 36.0124 133.923 36.2818 133.923 36.6363C133.923 36.9766 133.799 37.2459 133.55 37.4444C133.315 37.6288 132.985 37.7209 132.56 37.7209H126.952V40.9961C126.952 41.3222 127.033 41.5774 127.194 41.7617C127.37 41.946 127.604 42.0382 127.898 42.0382H134.715C135.155 42.0382 135.492 42.1374 135.727 42.3359C135.961 42.5203 136.079 42.7896 136.079 43.1441C136.079 43.4844 135.954 43.7538 135.705 43.9523C135.47 44.1366 135.14 44.2287 134.715 44.2287H127.546Z"
  fill="white"
/>
<path
  d="M145.194 44.4414C143.537 44.4414 142.1 44.1366 140.883 43.5269C139.666 42.9172 138.735 42.0382 138.09 40.8898C137.445 39.7413 137.123 38.3802 137.123 36.8064C137.123 35.2326 137.445 33.8715 138.09 32.7231C138.735 31.5605 139.659 30.6743 140.861 30.0647C142.078 29.4408 143.508 29.1289 145.15 29.1289C146.513 29.1289 147.774 29.3558 148.932 29.8095C150.09 30.2632 150.948 30.8657 151.505 31.6172C151.681 31.844 151.769 32.078 151.769 32.319C151.769 32.6735 151.571 32.9925 151.175 33.276C150.999 33.4036 150.779 33.4674 150.516 33.4674C150.296 33.4674 150.076 33.4249 149.856 33.3398C149.636 33.2406 149.453 33.1059 149.306 32.9358C148.808 32.3828 148.228 31.9858 147.569 31.7448C146.909 31.4896 146.103 31.362 145.15 31.362C143.551 31.362 142.305 31.844 141.411 32.8082C140.517 33.7581 140.069 35.0909 140.069 36.8064C140.069 38.5078 140.517 39.8335 141.411 40.7834C142.32 41.7334 143.581 42.2083 145.194 42.2083C147.041 42.2083 148.514 41.6837 149.614 40.6345C150.068 40.2234 150.486 40.0178 150.867 40.0178C151.131 40.0178 151.373 40.1029 151.593 40.273C151.93 40.5566 152.099 40.8685 152.099 41.2088C152.099 41.464 152.004 41.7121 151.813 41.9531C151.183 42.7329 150.281 43.3426 149.108 43.7821C147.95 44.2216 146.645 44.4414 145.194 44.4414Z"
  fill="white"
/>
<path
  d="M159.978 44.4414C159.538 44.4414 159.186 44.328 158.923 44.1011C158.659 43.8743 158.527 43.5624 158.527 43.1654V31.5321H154.282C153.857 31.5321 153.52 31.44 153.271 31.2556C153.036 31.0571 152.919 30.7878 152.919 30.4475C152.919 30.093 153.036 29.8236 153.271 29.6393C153.505 29.4408 153.843 29.3416 154.282 29.3416H165.696C166.136 29.3416 166.473 29.4408 166.708 29.6393C166.942 29.8236 167.06 30.093 167.06 30.4475C167.06 30.7878 166.935 31.0571 166.686 31.2556C166.451 31.44 166.121 31.5321 165.696 31.5321H161.452V43.1654C161.452 43.5482 161.312 43.8601 161.034 44.1011C160.77 44.328 160.418 44.4414 159.978 44.4414Z"
  fill="white"
/>
<path
  d="M175.436 44.4414C173.72 44.4414 172.24 44.1224 170.994 43.4844C169.762 42.8322 168.824 41.9319 168.179 40.7834C167.533 39.6208 167.211 38.288 167.211 36.7852C167.211 35.2823 167.533 33.9566 168.179 32.8082C168.824 31.6455 169.762 30.7452 170.994 30.1072C172.24 29.455 173.72 29.1289 175.436 29.1289C177.151 29.1289 178.625 29.455 179.856 30.1072C181.102 30.7452 182.048 31.6455 182.693 32.8082C183.338 33.9566 183.661 35.2823 183.661 36.7852C183.661 38.288 183.338 39.6208 182.693 40.7834C182.048 41.9319 181.102 42.8322 179.856 43.4844C178.625 44.1224 177.151 44.4414 175.436 44.4414ZM175.436 42.2083C177.107 42.2083 178.405 41.7263 179.328 40.7622C180.252 39.7839 180.714 38.4582 180.714 36.7852C180.714 35.0979 180.23 33.7723 179.262 32.8082C178.309 31.844 176.961 31.362 175.216 31.362C173.618 31.362 172.372 31.8582 171.477 32.8507C170.598 33.829 170.158 35.1405 170.158 36.7852C170.158 38.4582 170.62 39.7839 171.543 40.7622C172.467 41.7263 173.764 42.2083 175.436 42.2083Z"
  fill="white"
/>
<path
  d="M185.9 32.4891C185.9 31.4967 186.194 30.724 186.78 30.171C187.381 29.6181 188.21 29.3416 189.265 29.3416H193.18C195.364 29.3416 197.014 29.7527 198.128 30.5751C199.242 31.3974 199.799 32.6238 199.799 34.2543C199.799 35.7714 199.33 36.9553 198.392 37.806C197.468 38.6567 196.222 39.082 194.653 39.082L197.996 42.2934C198.26 42.5486 198.392 42.8393 198.392 43.1654C198.392 43.5056 198.238 43.8034 197.93 44.0586C197.607 44.2996 197.292 44.4201 196.984 44.4201C196.559 44.4201 196.171 44.2358 195.819 43.8672L191.069 39.1671H188.825V43.1654C188.825 43.5624 188.686 43.8743 188.408 44.1011C188.129 44.328 187.777 44.4414 187.352 44.4414C186.912 44.4414 186.56 44.328 186.296 44.1011C186.032 43.8743 185.9 43.5624 185.9 43.1654V32.4891ZM193.092 36.9766C194.059 36.9766 194.814 36.8844 195.357 36.7001C195.899 36.5158 196.281 36.2322 196.501 35.8494C196.735 35.4524 196.852 34.9207 196.852 34.2543C196.852 33.2902 196.544 32.5955 195.929 32.1701C195.328 31.7448 194.382 31.5321 193.092 31.5321H189.771C189.478 31.5321 189.243 31.6243 189.067 31.8086C188.906 31.9929 188.825 32.2481 188.825 32.5742V36.9766H193.092Z"
  fill="white"
/>
<defs>
  <clipPath id="clip0_3_15927">
    <rect width="49.2308" height="49" fill="white" />
  </clipPath>
</defs>
</svg>